<svg class="svg-icon" width="24" height="24" viewBox="0 0 1024 1024" version="1.1" xmlns="http://www.w3.org/2000/svg"><path fill="#fff" d="M597.34016 554.33216q17.67424 0 30.33088 12.67712l268.32896 268.32896 0-195.66592q0-17.67424 12.4928-30.16704t30.16704-12.4928 30.16704 12.4928 12.4928 30.16704l0 298.65984q0 17.67424-12.67712 30.33088t-30.33088 12.67712l-298.65984 0q-17.67424 0-30.16704-12.4928t-12.4928-30.16704 12.4928-30.16704 30.16704-12.4928l195.66592 0-268.32896-268.32896q-12.32896-13.0048-12.32896-30.33088 0-17.67424 12.4928-30.33088t30.16704-12.67712zM85.34016 42.65984l298.65984 0q17.67424 0 30.16704 12.4928t12.4928 30.16704-12.4928 30.16704-30.16704 12.4928l-195.66592 0 268.32896 268.00128q12.67712 12.67712 12.67712 30.33088t-12.67712 30.16704-30.33088 12.4928q-16.9984 0-30.33088-12.32896l-268.00128-268.32896 0 195.66592q0 17.67424-12.4928 30.16704t-30.16704 12.4928-30.16704-12.4928-12.4928-30.16704l0-298.65984q0-17.67424 12.4928-30.16704t30.16704-12.4928z"  /></svg>
